<mxfile host="app.diagrams.net" modified="2024-01-09T10:12:51.344Z" agent="Mozilla/5.0 (Windows NT 10.0; Win64; x64) AppleWebKit/537.36 (KHTML, like Gecko) Chrome/120.0.0.0 Safari/537.36" etag="M6e0qigwHoUKRc_eFsos" version="22.1.17" type="device">
  <diagram id="C5RBs43oDa-KdzZeNtuy" name="Page-1">
    <mxGraphModel dx="1434" dy="1959" grid="1" gridSize="10" guides="1" tooltips="1" connect="1" arrows="1" fold="1" page="1" pageScale="1" pageWidth="827" pageHeight="1169" math="0" shadow="0">
      <root>
        <mxCell id="WIyWlLk6GJQsqaUBKTNV-0" />
        <mxCell id="WIyWlLk6GJQsqaUBKTNV-1" parent="WIyWlLk6GJQsqaUBKTNV-0" />
        <mxCell id="NHSdD5cQyTbtL80OTe6L-0" value="Button on Microbit pressed" style="rounded=1;whiteSpace=wrap;html=1;fontSize=12;glass=0;strokeWidth=1;shadow=0;" vertex="1" parent="WIyWlLk6GJQsqaUBKTNV-1">
          <mxGeometry x="100" y="-320" width="130" height="50" as="geometry" />
        </mxCell>
        <mxCell id="NHSdD5cQyTbtL80OTe6L-4" value="" style="endArrow=classic;html=1;rounded=0;exitX=0.5;exitY=1;exitDx=0;exitDy=0;" edge="1" parent="WIyWlLk6GJQsqaUBKTNV-1" source="NHSdD5cQyTbtL80OTe6L-0">
          <mxGeometry width="50" height="50" relative="1" as="geometry">
            <mxPoint x="390" y="-20" as="sourcePoint" />
            <mxPoint x="170" y="-200" as="targetPoint" />
          </mxGeometry>
        </mxCell>
        <mxCell id="NHSdD5cQyTbtL80OTe6L-5" value="5 lights light up and then turn off" style="rounded=1;whiteSpace=wrap;html=1;fontSize=12;glass=0;strokeWidth=1;shadow=0;" vertex="1" parent="WIyWlLk6GJQsqaUBKTNV-1">
          <mxGeometry x="100" y="-200" width="130" height="50" as="geometry" />
        </mxCell>
        <mxCell id="NHSdD5cQyTbtL80OTe6L-10" value="Data stored in Firebase" style="shape=datastore;whiteSpace=wrap;html=1;" vertex="1" parent="WIyWlLk6GJQsqaUBKTNV-1">
          <mxGeometry x="105" y="-5" width="120" height="110" as="geometry" />
        </mxCell>
        <mxCell id="NHSdD5cQyTbtL80OTe6L-12" value="" style="endArrow=classic;html=1;rounded=0;exitX=0.5;exitY=1;exitDx=0;exitDy=0;" edge="1" parent="WIyWlLk6GJQsqaUBKTNV-1" source="NHSdD5cQyTbtL80OTe6L-10">
          <mxGeometry width="50" height="50" relative="1" as="geometry">
            <mxPoint x="390" y="-20" as="sourcePoint" />
            <mxPoint x="165" y="170" as="targetPoint" />
          </mxGeometry>
        </mxCell>
        <mxCell id="NHSdD5cQyTbtL80OTe6L-13" value="User presses button on website" style="rounded=1;whiteSpace=wrap;html=1;fontSize=12;glass=0;strokeWidth=1;shadow=0;" vertex="1" parent="WIyWlLk6GJQsqaUBKTNV-1">
          <mxGeometry x="105" y="170" width="130" height="50" as="geometry" />
        </mxCell>
        <mxCell id="NHSdD5cQyTbtL80OTe6L-14" value="Start" style="html=1;dashed=0;whiteSpace=wrap;shape=mxgraph.dfd.start" vertex="1" parent="WIyWlLk6GJQsqaUBKTNV-1">
          <mxGeometry x="105" y="-410" width="120" height="50" as="geometry" />
        </mxCell>
        <mxCell id="NHSdD5cQyTbtL80OTe6L-16" value="User presses microbit button again, reaction time recorded" style="shape=parallelogram;perimeter=parallelogramPerimeter;whiteSpace=wrap;html=1;fixedSize=1;" vertex="1" parent="WIyWlLk6GJQsqaUBKTNV-1">
          <mxGeometry x="80" y="-120" width="190" height="90" as="geometry" />
        </mxCell>
        <mxCell id="NHSdD5cQyTbtL80OTe6L-17" value="" style="endArrow=classic;html=1;rounded=0;exitX=0.5;exitY=1;exitDx=0;exitDy=0;entryX=0.437;entryY=0.011;entryDx=0;entryDy=0;entryPerimeter=0;" edge="1" parent="WIyWlLk6GJQsqaUBKTNV-1" source="NHSdD5cQyTbtL80OTe6L-5" target="NHSdD5cQyTbtL80OTe6L-16">
          <mxGeometry width="50" height="50" relative="1" as="geometry">
            <mxPoint x="390" y="-120" as="sourcePoint" />
            <mxPoint x="440" y="-170" as="targetPoint" />
          </mxGeometry>
        </mxCell>
        <mxCell id="NHSdD5cQyTbtL80OTe6L-18" value="" style="endArrow=classic;html=1;rounded=0;exitX=0.5;exitY=1;exitDx=0;exitDy=0;entryX=0.583;entryY=0.009;entryDx=0;entryDy=0;entryPerimeter=0;" edge="1" parent="WIyWlLk6GJQsqaUBKTNV-1" source="NHSdD5cQyTbtL80OTe6L-16" target="NHSdD5cQyTbtL80OTe6L-10">
          <mxGeometry width="50" height="50" relative="1" as="geometry">
            <mxPoint x="390" y="-120" as="sourcePoint" />
            <mxPoint x="440" y="-170" as="targetPoint" />
          </mxGeometry>
        </mxCell>
        <mxCell id="NHSdD5cQyTbtL80OTe6L-19" value="Latest reaction time displayed on webiste" style="shape=parallelogram;perimeter=parallelogramPerimeter;whiteSpace=wrap;html=1;fixedSize=1;" vertex="1" parent="WIyWlLk6GJQsqaUBKTNV-1">
          <mxGeometry x="86.5" y="460" width="150" height="70" as="geometry" />
        </mxCell>
        <mxCell id="NHSdD5cQyTbtL80OTe6L-20" value="" style="endArrow=classic;html=1;rounded=0;exitX=0.5;exitY=1;exitDx=0;exitDy=0;entryX=0.5;entryY=0;entryDx=0;entryDy=0;" edge="1" parent="WIyWlLk6GJQsqaUBKTNV-1" source="NHSdD5cQyTbtL80OTe6L-13" target="NHSdD5cQyTbtL80OTe6L-36">
          <mxGeometry width="50" height="50" relative="1" as="geometry">
            <mxPoint x="390" y="80" as="sourcePoint" />
            <mxPoint x="170" y="270" as="targetPoint" />
          </mxGeometry>
        </mxCell>
        <mxCell id="NHSdD5cQyTbtL80OTe6L-21" value="" style="endArrow=classic;html=1;rounded=0;" edge="1" parent="WIyWlLk6GJQsqaUBKTNV-1" target="NHSdD5cQyTbtL80OTe6L-22">
          <mxGeometry width="50" height="50" relative="1" as="geometry">
            <mxPoint x="162" y="530" as="sourcePoint" />
            <mxPoint x="163" y="410" as="targetPoint" />
          </mxGeometry>
        </mxCell>
        <mxCell id="NHSdD5cQyTbtL80OTe6L-22" value="End" style="html=1;dashed=0;whiteSpace=wrap;shape=mxgraph.dfd.start" vertex="1" parent="WIyWlLk6GJQsqaUBKTNV-1">
          <mxGeometry x="93" y="570" width="137" height="55" as="geometry" />
        </mxCell>
        <mxCell id="NHSdD5cQyTbtL80OTe6L-23" value="" style="endArrow=classic;html=1;rounded=0;exitX=0.5;exitY=0.5;exitDx=0;exitDy=25;exitPerimeter=0;entryX=0.5;entryY=0;entryDx=0;entryDy=0;" edge="1" parent="WIyWlLk6GJQsqaUBKTNV-1" source="NHSdD5cQyTbtL80OTe6L-14" target="NHSdD5cQyTbtL80OTe6L-0">
          <mxGeometry width="50" height="50" relative="1" as="geometry">
            <mxPoint x="390" y="-120" as="sourcePoint" />
            <mxPoint x="440" y="-170" as="targetPoint" />
          </mxGeometry>
        </mxCell>
        <mxCell id="NHSdD5cQyTbtL80OTe6L-24" value="Start" style="html=1;dashed=0;whiteSpace=wrap;shape=mxgraph.dfd.start" vertex="1" parent="WIyWlLk6GJQsqaUBKTNV-1">
          <mxGeometry x="354" y="-410" width="120" height="50" as="geometry" />
        </mxCell>
        <mxCell id="NHSdD5cQyTbtL80OTe6L-25" value="" style="endArrow=classic;html=1;rounded=0;exitX=0.5;exitY=0.5;exitDx=0;exitDy=25;exitPerimeter=0;" edge="1" parent="WIyWlLk6GJQsqaUBKTNV-1" source="NHSdD5cQyTbtL80OTe6L-24">
          <mxGeometry width="50" height="50" relative="1" as="geometry">
            <mxPoint x="390" y="-220" as="sourcePoint" />
            <mxPoint x="414" y="-290" as="targetPoint" />
          </mxGeometry>
        </mxCell>
        <mxCell id="NHSdD5cQyTbtL80OTe6L-27" value="User inputs age and gender on website form" style="shape=parallelogram;perimeter=parallelogramPerimeter;whiteSpace=wrap;html=1;fixedSize=1;" vertex="1" parent="WIyWlLk6GJQsqaUBKTNV-1">
          <mxGeometry x="350" y="-290" width="150" height="60" as="geometry" />
        </mxCell>
        <mxCell id="NHSdD5cQyTbtL80OTe6L-28" value="" style="endArrow=classic;html=1;rounded=0;exitX=0.46;exitY=1.05;exitDx=0;exitDy=0;exitPerimeter=0;" edge="1" parent="WIyWlLk6GJQsqaUBKTNV-1" source="NHSdD5cQyTbtL80OTe6L-27">
          <mxGeometry width="50" height="50" relative="1" as="geometry">
            <mxPoint x="390" y="-120" as="sourcePoint" />
            <mxPoint x="420" y="-160" as="targetPoint" />
          </mxGeometry>
        </mxCell>
        <mxCell id="NHSdD5cQyTbtL80OTe6L-29" value="Data stored in Firebase" style="shape=datastore;whiteSpace=wrap;html=1;" vertex="1" parent="WIyWlLk6GJQsqaUBKTNV-1">
          <mxGeometry x="360" y="-160" width="120" height="110" as="geometry" />
        </mxCell>
        <mxCell id="NHSdD5cQyTbtL80OTe6L-33" value="" style="endArrow=classic;html=1;rounded=0;exitX=0.5;exitY=1;exitDx=0;exitDy=0;" edge="1" parent="WIyWlLk6GJQsqaUBKTNV-1" source="NHSdD5cQyTbtL80OTe6L-29">
          <mxGeometry width="50" height="50" relative="1" as="geometry">
            <mxPoint x="390" y="-20" as="sourcePoint" />
            <mxPoint x="420" y="30" as="targetPoint" />
          </mxGeometry>
        </mxCell>
        <mxCell id="NHSdD5cQyTbtL80OTe6L-34" value="User presses &quot;show&quot; button on webiste" style="rounded=1;whiteSpace=wrap;html=1;" vertex="1" parent="WIyWlLk6GJQsqaUBKTNV-1">
          <mxGeometry x="325" y="30" width="190" height="90" as="geometry" />
        </mxCell>
        <mxCell id="NHSdD5cQyTbtL80OTe6L-35" value="" style="endArrow=classic;html=1;rounded=0;exitX=0.5;exitY=1;exitDx=0;exitDy=0;" edge="1" parent="WIyWlLk6GJQsqaUBKTNV-1" source="NHSdD5cQyTbtL80OTe6L-34">
          <mxGeometry width="50" height="50" relative="1" as="geometry">
            <mxPoint x="414" y="240" as="sourcePoint" />
            <mxPoint x="420" y="200" as="targetPoint" />
          </mxGeometry>
        </mxCell>
        <mxCell id="NHSdD5cQyTbtL80OTe6L-36" value="Data retrieved from&amp;nbsp; Firebase" style="shape=datastore;whiteSpace=wrap;html=1;" vertex="1" parent="WIyWlLk6GJQsqaUBKTNV-1">
          <mxGeometry x="110" y="280" width="120" height="110" as="geometry" />
        </mxCell>
        <mxCell id="NHSdD5cQyTbtL80OTe6L-38" value="" style="endArrow=classic;html=1;rounded=0;exitX=0.5;exitY=1;exitDx=0;exitDy=0;entryX=0.5;entryY=0;entryDx=0;entryDy=0;" edge="1" parent="WIyWlLk6GJQsqaUBKTNV-1" source="NHSdD5cQyTbtL80OTe6L-36" target="NHSdD5cQyTbtL80OTe6L-19">
          <mxGeometry width="50" height="50" relative="1" as="geometry">
            <mxPoint x="390" y="280" as="sourcePoint" />
            <mxPoint x="440" y="230" as="targetPoint" />
          </mxGeometry>
        </mxCell>
        <mxCell id="NHSdD5cQyTbtL80OTe6L-39" value="Data retrieved from&amp;nbsp; Firebase" style="shape=datastore;whiteSpace=wrap;html=1;" vertex="1" parent="WIyWlLk6GJQsqaUBKTNV-1">
          <mxGeometry x="360" y="200" width="120" height="110" as="geometry" />
        </mxCell>
        <mxCell id="NHSdD5cQyTbtL80OTe6L-41" value="" style="endArrow=classic;html=1;rounded=0;exitX=0.5;exitY=1;exitDx=0;exitDy=0;" edge="1" parent="WIyWlLk6GJQsqaUBKTNV-1" source="NHSdD5cQyTbtL80OTe6L-39">
          <mxGeometry width="50" height="50" relative="1" as="geometry">
            <mxPoint x="420" y="320" as="sourcePoint" />
            <mxPoint x="420" y="360" as="targetPoint" />
          </mxGeometry>
        </mxCell>
        <mxCell id="NHSdD5cQyTbtL80OTe6L-42" value="intermittent decisions" style="rhombus;whiteSpace=wrap;html=1;" vertex="1" parent="WIyWlLk6GJQsqaUBKTNV-1">
          <mxGeometry x="360" y="360" width="125" height="120" as="geometry" />
        </mxCell>
        <mxCell id="NHSdD5cQyTbtL80OTe6L-45" value="" style="endArrow=classic;html=1;rounded=0;exitX=0.5;exitY=1;exitDx=0;exitDy=0;" edge="1" parent="WIyWlLk6GJQsqaUBKTNV-1" source="NHSdD5cQyTbtL80OTe6L-42">
          <mxGeometry width="50" height="50" relative="1" as="geometry">
            <mxPoint x="510" y="590" as="sourcePoint" />
            <mxPoint x="423" y="550" as="targetPoint" />
          </mxGeometry>
        </mxCell>
        <mxCell id="NHSdD5cQyTbtL80OTe6L-46" value="Data for conclusions for &quot;what if&quot; questions displayed on website" style="shape=parallelogram;perimeter=parallelogramPerimeter;whiteSpace=wrap;html=1;fixedSize=1;" vertex="1" parent="WIyWlLk6GJQsqaUBKTNV-1">
          <mxGeometry x="345" y="550" width="160" height="90" as="geometry" />
        </mxCell>
        <mxCell id="NHSdD5cQyTbtL80OTe6L-47" value="End" style="html=1;dashed=0;whiteSpace=wrap;shape=mxgraph.dfd.start" vertex="1" parent="WIyWlLk6GJQsqaUBKTNV-1">
          <mxGeometry x="351.5" y="700" width="137" height="55" as="geometry" />
        </mxCell>
        <mxCell id="NHSdD5cQyTbtL80OTe6L-48" value="" style="endArrow=classic;html=1;rounded=0;exitX=0.5;exitY=1;exitDx=0;exitDy=0;entryX=0.5;entryY=0.5;entryDx=0;entryDy=-27.5;entryPerimeter=0;" edge="1" parent="WIyWlLk6GJQsqaUBKTNV-1" source="NHSdD5cQyTbtL80OTe6L-46" target="NHSdD5cQyTbtL80OTe6L-47">
          <mxGeometry width="50" height="50" relative="1" as="geometry">
            <mxPoint x="390" y="580" as="sourcePoint" />
            <mxPoint x="440" y="530" as="targetPoint" />
          </mxGeometry>
        </mxCell>
      </root>
    </mxGraphModel>
  </diagram>
</mxfile>
